<?xml version="1.0" encoding="utf-8"?>
<!-- Generator: Adobe Illustrator 24.0.1, SVG Export Plug-In . SVG Version: 6.00 Build 0)  -->
<svg version="1.1" id="Icon_x5F_contour" xmlns="http://www.w3.org/2000/svg" xmlns:xlink="http://www.w3.org/1999/xlink" x="0px"
	 y="0px" viewBox="0 0 192 192" style="enable-background:new 0 0 192 192;" xml:space="preserve">
<path d="M156.10303,77.5376C153.06152,74.01855,148.64893,72,143.99756,72H116V48c0-8.82227-7.17773-16-16-16H88.81299
	l-9.27441,40.48193c-0.60498,2.31055-2.18457,4.20605-4.3457,5.21777l-12.18341,4.8114C60.76257,76.38855,54.89178,72,48,72
	c-8.82227,0-16,7.17773-16,16v56c0,8.82227,7.17773,16,16,16c6.86951,0,12.72461-4.36023,14.98767-10.45178
	c5.33691,2.18066,13.60846,5.53345,15.74719,6.2467c0.41113,0.13672,0.88379,0.31641,1.4248,0.52051
	C83.57471,157.60303,89.93164,160,100,160h35.50977c7.88379,0,14.68994-5.88232,15.82812-13.6626l8.49121-56.02051
	C160.50244,85.71484,159.14453,81.05664,156.10303,77.5376z M56,144c0,4.41113-3.58887,8-8,8s-8-3.58887-8-8V88
	c0-4.41113,3.58887-8,8-8s8,3.58887,8,8V144z M151.9165,89.13818l-8.49121,56.02051
	C142.85498,149.05908,139.45166,152,135.50977,152H100c-8.60986,0-13.87305-1.98438-17.01758-3.17041
	c-0.65234-0.24561-1.22266-0.45947-1.71729-0.62451c-2.01471-0.67114-11.60028-4.56586-17.26514-6.88672V90.72083l14.23438-5.62122
	l0.18604-0.07861c4.43555-2.01611,7.67188-5.87988,8.87988-10.6001L95.1875,40H100c4.41113,0,8,3.58887,8,8v32h35.99756
	c2.32568,0,4.53223,1.00928,6.05273,2.76855C151.57129,84.52832,152.25,86.85742,151.9165,89.13818z"/>
<g>
</g>
<g>
</g>
<g>
</g>
<g>
</g>
<g>
</g>
<g>
</g>
<g>
</g>
<g>
</g>
<g>
</g>
<g>
</g>
<g>
</g>
<g>
</g>
<g>
</g>
<g>
</g>
<g>
</g>
</svg>
