<?xml version="1.0" encoding="utf-8"?>
<!-- Generator: Adobe Illustrator 24.0.1, SVG Export Plug-In . SVG Version: 6.00 Build 0)  -->
<svg version="1.1" id="Icon_x5F_contour" xmlns="http://www.w3.org/2000/svg" xmlns:xlink="http://www.w3.org/1999/xlink" x="0px"
	 y="0px" viewBox="0 0 192 192" style="enable-background:new 0 0 192 192;" xml:space="preserve">
<path d="M159.8291,101.68311l-8.49121-56.02051C150.19971,37.88232,143.39355,32,135.50977,32H100
	c-10.06836,0-16.42529,2.39697-19.84033,3.68457c-0.54102,0.2041-1.01367,0.38379-1.4248,0.52051
	c-2.13873,0.71326-10.41028,4.06604-15.74719,6.2467C60.72461,36.36023,54.86951,32,48,32c-8.82227,0-16,7.17773-16,16v56
	c0,8.82227,7.17773,16,16,16c6.89178,0,12.76257-4.38855,15.00946-10.51111l12.18341,4.8114
	c2.16113,1.01172,3.74072,2.90723,4.3457,5.21777L88.81299,160H100c8.82227,0,16-7.17773,16-16v-24h27.99756
	c4.65137,0,9.06396-2.01855,12.10547-5.5376S160.50244,106.28516,159.8291,101.68311z M56,104c0,4.41113-3.58887,8-8,8
	s-8-3.58887-8-8V48c0-4.41113,3.58887-8,8-8s8,3.58887,8,8V104z M150.05029,109.23145
	C148.52979,110.99072,146.32324,112,143.99756,112H108v32c0,4.41113-3.58887,8-8,8h-4.8125l-7.88721-34.4209
	c-1.20801-4.72021-4.44434-8.58398-8.87988-10.6001l-0.18604-0.07861L64,101.27917V50.68164
	c5.66486-2.32086,15.25043-6.21558,17.26514-6.88672c0.49463-0.16504,1.06494-0.37891,1.71729-0.62451
	C86.12695,41.98438,91.39014,40,100,40h35.50977c3.94189,0,7.34521,2.94092,7.91553,6.84131l8.49121,56.02051
	C152.25,105.14258,151.57129,107.47168,150.05029,109.23145z"/>
<g>
</g>
<g>
</g>
<g>
</g>
<g>
</g>
<g>
</g>
<g>
</g>
<g>
</g>
<g>
</g>
<g>
</g>
<g>
</g>
<g>
</g>
<g>
</g>
<g>
</g>
<g>
</g>
<g>
</g>
</svg>
